<?xml version="1.0" encoding="UTF-8" standalone="no"?>
<!-- Created with Inkscape (http://www.inkscape.org/) -->

<svg
   xmlns:dc="http://purl.org/dc/elements/1.1/"
   xmlns:cc="http://creativecommons.org/ns#"
   xmlns:rdf="http://www.w3.org/1999/02/22-rdf-syntax-ns#"
   xmlns:svg="http://www.w3.org/2000/svg"
   xmlns="http://www.w3.org/2000/svg"
   version="1.0"
   width="469.76999"
   height="356.47"
   id="svg2">
  <metadata
     id="metadata2975">
    <rdf:RDF>
      <cc:Work
         rdf:about="">
        <dc:format>image/svg+xml</dc:format>
        <dc:type
           rdf:resource="http://purl.org/dc/dcmitype/StillImage" />
        <cc:license
           rdf:resource="http://web.resource.org/cc/PublicDomain" />
        <dc:language>en</dc:language>
        <dc:title></dc:title>
      </cc:Work>
    </rdf:RDF>
  </metadata>
  <defs
     id="defs4" />
  <g
     id="layer1">
    <rect
       width="723.51324"
       height="575.48761"
       x="-152.55708"
       y="-69.481438"
       id="rect2988"
       style="fill:#e6e6e6;fill-opacity:1;stroke:none" />
  </g>
  <g
     id="layer2">
    <path
       d="m 315.34226,81.26508 c 0,0 44.95613,-34.01908 80.49977,-34.01908 35.54387,0 51.84365,55.37989 51.08753,92.56347 -0.75634,37.18361 -27.98129,128.16507 -160.32494,129.74732 -132.34342,1.58226 29.49376,-188.29171 28.73764,-188.29171 z"
       id="path3409"
       style="fill:none;stroke:#000000;stroke-width:45.62662125;stroke-linecap:butt;stroke-linejoin:miter;stroke-miterlimit:4;stroke-opacity:1;stroke-dasharray:none" />
    <path
       d="m 13.63258,9.31178 c 10e-7,0 -44.018386,338.29601 148.92074,337.55949 4.70818,0.25895 9.1851,0.33321 13.44302,0.26188 4.25792,0.0713 8.73484,-0.003 13.44302,-0.26188 C 382.37849,347.60779 338.36011,9.31178 338.3601,9.31178 L 175.99634,9.98102 13.63258,9.31178 z"
       id="path3407"
       style="fill:#e6e6e6;fill-opacity:1;fill-rule:evenodd;stroke:#000000;stroke-width:18.62236595;stroke-linecap:round;stroke-linejoin:round;stroke-miterlimit:4;stroke-opacity:1;stroke-dasharray:none" />
  </g>
</svg>
