<?xml version="1.0" encoding="UTF-8" standalone="no"?>
<!-- Created with Inkscape (http://www.inkscape.org/) -->

<svg
   xmlns:dc="http://purl.org/dc/elements/1.1/"
   xmlns:cc="http://creativecommons.org/ns#"
   xmlns:rdf="http://www.w3.org/1999/02/22-rdf-syntax-ns#"
   xmlns:svg="http://www.w3.org/2000/svg"
   xmlns="http://www.w3.org/2000/svg"
   version="1.0"
   width="512.57001"
   height="378.70999"
   id="svg2">
  <metadata
     id="metadata2975">
    <rdf:RDF>
      <cc:Work
         rdf:about="">
        <dc:format>image/svg+xml</dc:format>
        <dc:type
           rdf:resource="http://purl.org/dc/dcmitype/StillImage" />
        <cc:license
           rdf:resource="http://web.resource.org/cc/PublicDomain" />
        <dc:language>en</dc:language>
        <dc:title></dc:title>
      </cc:Work>
    </rdf:RDF>
  </metadata>
  <defs
     id="defs4">
    <symbol
       viewBox="244.5 110 489 219.9"
       id="symbol-university">
      <path
         d="m 79,43 57,119 c 0,0 21,-96 104,-96 83,0 124,106 124,106 L 407,39 489,22 0,17 79,43 z"
         id="path4460" />
      <path
         d="M 94,176 73,215"
         id="path4462"
         style="fill:none;stroke:#000000;stroke-width:20" />
      <path
         d="M 300,19 C 300,29.5 277.4,38 249.5,38 221.6,38 199,29.5 199,19 199,8.5 221.6,0 249.5,0 277.4,0 300,8.5 300,19 z"
         id="path4464" />
      <path
         d="M 112,216 96,178 64,88 C 64,88 55,80 60,53 65,26 76,29 76,29"
         id="path4466"
         style="stroke:#000000;stroke-width:20" />
    </symbol>
  </defs>
  <g
     transform="matrix(48.14969,0,0,48.14969,-536.27327,-234.59675)"
     id="layer3"
     style="stroke:#757575;stroke-opacity:1;display:none">
    <rect
       width="10"
       height="10"
       x="1"
       y="1"
       id="rect4134"
       style="fill:none;stroke:#757575;stroke-width:0.1;stroke-miterlimit:4;stroke-opacity:1;stroke-dasharray:none;display:inline" />
    <rect
       width="8"
       height="8"
       x="2"
       y="2"
       id="rect4136"
       style="fill:none;stroke:#757575;stroke-width:0.1;stroke-miterlimit:4;stroke-opacity:1;stroke-dasharray:none;display:inline" />
  </g>
  <g
     transform="matrix(1.3973279,-0.2437849,0.2437849,1.3973279,-185.07402,-257.47331)"
     id="g3338" />
  <path
     d="m 196.55587,2.55257 -25.57392,37.32809 172.624,0 -23.31161,-37.32809 -123.73847,0 z m 35.73795,4.45907 51.86912,0 0,29.24602 -51.86912,0 0,-29.24602 z m 171.70595,11.32791 -9.04924,21.29521 68.21353,0 -8.26234,-21.29521 -50.90195,0 z m -332.21515,7.32791 -4.42626,13.81976 45.88553,0 -3.19674,-13.81976 -38.26253,0 z"
     id="rect15047"
     style="fill:#ffffff;fill-opacity:1;stroke:#000000;stroke-width:5.0999999;stroke-linecap:round;stroke-linejoin:round;stroke-miterlimit:4;stroke-opacity:1;stroke-dasharray:none" />
  <path
     d="M 44.5,51.8975 C 19.848467,51.8975 0,71.74597 0,96.3975 L 0,334.21 c 0,24.65153 19.848467,44.5 44.5,44.5 l 426.5625,0 c 24.65153,0 44.5,-19.84847 44.5,-44.5 l 0,-237.8125 c 0,-24.65153 -19.84847,-44.5 -44.5,-44.5 l -426.5625,0 z m 260.25,42.96875 c 65.25142,0 118.15625,52.87358 118.15625,118.125 0,65.25142 -52.90483,118.15625 -118.15625,118.15625 -65.25142,0 -118.15625,-52.90483 -118.15625,-118.15625 0,-65.25142 52.90483,-118.125 118.15625,-118.125 z"
     id="rect15867"
     style="fill:#000000;fill-opacity:1;stroke:none" />
  <path
     d="m 452.64549,309.94708 a 118.14815,118.14815 0 1 1 -236.29629,0 118.14815,118.14815 0 1 1 236.29629,0 z"
     transform="matrix(0.5974026,0,0,0.5974026,104.91776,27.83764)"
     id="path15871"
     style="fill:#000000;fill-opacity:1;stroke:none" />
</svg>
