<?xml version="1.0" encoding="UTF-8" standalone="no"?>
<!-- Created with Inkscape (http://www.inkscape.org/) -->

<svg
   xmlns:dc="http://purl.org/dc/elements/1.1/"
   xmlns:cc="http://creativecommons.org/ns#"
   xmlns:rdf="http://www.w3.org/1999/02/22-rdf-syntax-ns#"
   xmlns:svg="http://www.w3.org/2000/svg"
   xmlns="http://www.w3.org/2000/svg"
   xmlns:xlink="http://www.w3.org/1999/xlink"
   xmlns:sodipodi="http://sodipodi.sourceforge.net/DTD/sodipodi-0.dtd"
   xmlns:inkscape="http://www.inkscape.org/namespaces/inkscape"
   id="svg2"
   version="1.1"
   inkscape:version="0.91 r13725"
   xml:space="preserve"
   width="125mm"
   height="168mm"
   viewBox="0 0 442.9134 595.27556"
   sodipodi:docname="deckseite-vektor-mit-schnittmarken.svg"><metadata
     id="metadata8"><rdf:RDF><cc:Work
         rdf:about=""><dc:format>image/svg+xml</dc:format><dc:type
           rdf:resource="http://purl.org/dc/dcmitype/StillImage" /><dc:title /></cc:Work></rdf:RDF></metadata><defs
     id="defs6"><clipPath
       clipPathUnits="userSpaceOnUse"
       id="clipPath22"><path
         d="m 14.04,681.72 141.84,0 0,141.84 -141.84,0 0,-141.84 z"
         id="path24"
         inkscape:connector-curvature="0" /></clipPath><clipPath
       clipPathUnits="userSpaceOnUse"
       id="clipPath30"><path
         d="m 14.050048,823.47525 0,-141.73227 141.732272,0 0,141.73227"
         id="path32"
         inkscape:connector-curvature="0" /></clipPath><clipPath
       clipPathUnits="userSpaceOnUse"
       id="clipPath48"><path
         d="m 257.63999,699.24 312.12,0 0,116.04 -312.12,0 0,-116.04 z"
         id="path50"
         inkscape:connector-curvature="0" /></clipPath><clipPath
       clipPathUnits="userSpaceOnUse"
       id="clipPath56"><path
         d="m 257.70361,815.27392 0,-115.99999 312,0 0,115.99999"
         id="path58"
         inkscape:connector-curvature="0" /></clipPath><clipPath
       clipPathUnits="userSpaceOnUse"
       id="clipPath68"><path
         d="m 9.6,158.28001 573.95999,0 0,397.92 -573.95999,0 0,-397.92 z"
         id="path70"
         inkscape:connector-curvature="0" /></clipPath><clipPath
       clipPathUnits="userSpaceOnUse"
       id="clipPath76"><path
         d="m 9.713792,556.09535 0,-397.75024 573.734008,0 0,397.75024"
         id="path78"
         inkscape:connector-curvature="0" /></clipPath><clipPath
       id="clipPath4253"
       clipPathUnits="userSpaceOnUse"><path
         inkscape:connector-curvature="0"
         id="path4255"
         d="m 71.999998,71.880016 468.119992,0 0,648.119984 -468.119992,0 0,-648.119984 z" /></clipPath><clipPath
       id="clipPath4263"
       clipPathUnits="userSpaceOnUse"><path
         inkscape:connector-curvature="0"
         id="path4265"
         d="m 71.999998,71.880016 468.119992,0 0,648.119984 -468.119992,0 0,-648.119984 z" /></clipPath><clipPath
       id="clipPath4273"
       clipPathUnits="userSpaceOnUse"><path
         inkscape:connector-curvature="0"
         id="path4275"
         d="m 71.999998,71.880016 468.119992,0 0,648.119984 -468.119992,0 0,-648.119984 z" /></clipPath><clipPath
       id="clipPath4283"
       clipPathUnits="userSpaceOnUse"><path
         inkscape:connector-curvature="0"
         id="path4285"
         d="m 71.999998,71.880016 468.119992,0 0,648.119984 -468.119992,0 0,-648.119984 z" /></clipPath><clipPath
       id="clipPath4293"
       clipPathUnits="userSpaceOnUse"><path
         inkscape:connector-curvature="0"
         id="path4295"
         d="m 71.999998,71.880016 468.119992,0 0,648.119984 -468.119992,0 0,-648.119984 z" /></clipPath><clipPath
       id="clipPath4303"
       clipPathUnits="userSpaceOnUse"><path
         inkscape:connector-curvature="0"
         id="path4305"
         d="m 71.999998,71.880016 468.119992,0 0,648.119984 -468.119992,0 0,-648.119984 z" /></clipPath><clipPath
       id="clipPath4313"
       clipPathUnits="userSpaceOnUse"><path
         inkscape:connector-curvature="0"
         id="path4315"
         d="m 71.999998,71.880016 468.119992,0 0,648.119984 -468.119992,0 0,-648.119984 z" /></clipPath><clipPath
       id="clipPath4323"
       clipPathUnits="userSpaceOnUse"><path
         inkscape:connector-curvature="0"
         id="path4325"
         d="m 71.999998,71.880016 468.119992,0 0,648.119984 -468.119992,0 0,-648.119984 z" /></clipPath><clipPath
       id="clipPath4333"
       clipPathUnits="userSpaceOnUse"><path
         inkscape:connector-curvature="0"
         id="path4335"
         d="m 71.999998,71.880016 468.119992,0 0,648.119984 -468.119992,0 0,-648.119984 z" /></clipPath><clipPath
       id="clipPath4343"
       clipPathUnits="userSpaceOnUse"><path
         inkscape:connector-curvature="0"
         id="path4345"
         d="m 71.999998,71.880016 468.119992,0 0,648.119984 -468.119992,0 0,-648.119984 z" /></clipPath><clipPath
       id="clipPath4353"
       clipPathUnits="userSpaceOnUse"><path
         inkscape:connector-curvature="0"
         id="path4355"
         d="m 71.999998,71.880016 468.119992,0 0,648.119984 -468.119992,0 0,-648.119984 z" /></clipPath><clipPath
       id="clipPath4363"
       clipPathUnits="userSpaceOnUse"><path
         inkscape:connector-curvature="0"
         id="path4365"
         d="m 71.999998,71.880016 468.119992,0 0,648.119984 -468.119992,0 0,-648.119984 z" /></clipPath><clipPath
       id="clipPath4373"
       clipPathUnits="userSpaceOnUse"><path
         inkscape:connector-curvature="0"
         id="path4375"
         d="m 71.999998,71.880016 468.119992,0 0,648.119984 -468.119992,0 0,-648.119984 z" /></clipPath><clipPath
       id="clipPath4383"
       clipPathUnits="userSpaceOnUse"><path
         inkscape:connector-curvature="0"
         id="path4385"
         d="m 71.999998,71.880016 468.119992,0 0,648.119984 -468.119992,0 0,-648.119984 z" /></clipPath><clipPath
       id="clipPath4393"
       clipPathUnits="userSpaceOnUse"><path
         inkscape:connector-curvature="0"
         id="path4395"
         d="m 71.999998,71.880016 468.119992,0 0,648.119984 -468.119992,0 0,-648.119984 z" /></clipPath><clipPath
       id="clipPath4403"
       clipPathUnits="userSpaceOnUse"><path
         inkscape:connector-curvature="0"
         id="path4405"
         d="m 71.999998,71.880016 468.119992,0 0,648.119984 -468.119992,0 0,-648.119984 z" /></clipPath><clipPath
       id="clipPath4413"
       clipPathUnits="userSpaceOnUse"><path
         inkscape:connector-curvature="0"
         id="path4415"
         d="m 71.999998,71.880016 468.119992,0 0,648.119984 -468.119992,0 0,-648.119984 z" /></clipPath><clipPath
       id="clipPath4423"
       clipPathUnits="userSpaceOnUse"><path
         inkscape:connector-curvature="0"
         id="path4425"
         d="m 71.999998,71.880016 468.119992,0 0,648.119984 -468.119992,0 0,-648.119984 z" /></clipPath><clipPath
       id="clipPath4433"
       clipPathUnits="userSpaceOnUse"><path
         inkscape:connector-curvature="0"
         id="path4435"
         d="m 71.999998,71.880016 468.119992,0 0,648.119984 -468.119992,0 0,-648.119984 z" /></clipPath><clipPath
       id="clipPath4443"
       clipPathUnits="userSpaceOnUse"><path
         inkscape:connector-curvature="0"
         id="path4445"
         d="m 71.999998,71.880016 468.119992,0 0,648.119984 -468.119992,0 0,-648.119984 z" /></clipPath><clipPath
       id="clipPath4453"
       clipPathUnits="userSpaceOnUse"><path
         inkscape:connector-curvature="0"
         id="path4455"
         d="m 71.999998,71.880016 468.119992,0 0,648.119984 -468.119992,0 0,-648.119984 z" /></clipPath><clipPath
       id="clipPath4463"
       clipPathUnits="userSpaceOnUse"><path
         inkscape:connector-curvature="0"
         id="path4465"
         d="m 71.999998,71.880016 468.119992,0 0,648.119984 -468.119992,0 0,-648.119984 z" /></clipPath><clipPath
       id="clipPath4473"
       clipPathUnits="userSpaceOnUse"><path
         inkscape:connector-curvature="0"
         id="path4475"
         d="m 71.999998,71.880016 468.119992,0 0,648.119984 -468.119992,0 0,-648.119984 z" /></clipPath><clipPath
       id="clipPath4483"
       clipPathUnits="userSpaceOnUse"><path
         inkscape:connector-curvature="0"
         id="path4485"
         d="m 71.999998,71.880016 468.119992,0 0,648.119984 -468.119992,0 0,-648.119984 z" /></clipPath><clipPath
       id="clipPath4493"
       clipPathUnits="userSpaceOnUse"><path
         inkscape:connector-curvature="0"
         id="path4495"
         d="m 71.999998,71.880016 468.119992,0 0,648.119984 -468.119992,0 0,-648.119984 z" /></clipPath><clipPath
       id="clipPath4503"
       clipPathUnits="userSpaceOnUse"><path
         inkscape:connector-curvature="0"
         id="path4505"
         d="m 71.999998,71.880016 468.119992,0 0,648.119984 -468.119992,0 0,-648.119984 z" /></clipPath><clipPath
       id="clipPath4513"
       clipPathUnits="userSpaceOnUse"><path
         inkscape:connector-curvature="0"
         id="path4515"
         d="m 71.999998,71.880016 468.119992,0 0,648.119984 -468.119992,0 0,-648.119984 z" /></clipPath><clipPath
       id="clipPath4523"
       clipPathUnits="userSpaceOnUse"><path
         inkscape:connector-curvature="0"
         id="path4525"
         d="m 71.999998,71.880016 468.119992,0 0,648.119984 -468.119992,0 0,-648.119984 z" /></clipPath><clipPath
       id="clipPath4533"
       clipPathUnits="userSpaceOnUse"><path
         inkscape:connector-curvature="0"
         id="path4535"
         d="m 71.999998,71.880016 468.119992,0 0,648.119984 -468.119992,0 0,-648.119984 z" /></clipPath><clipPath
       id="clipPath4543"
       clipPathUnits="userSpaceOnUse"><path
         inkscape:connector-curvature="0"
         id="path4545"
         d="m 71.999998,71.880016 468.119992,0 0,648.119984 -468.119992,0 0,-648.119984 z" /></clipPath><clipPath
       id="clipPath4553"
       clipPathUnits="userSpaceOnUse"><path
         inkscape:connector-curvature="0"
         id="path4555"
         d="m 71.999998,71.880016 468.119992,0 0,648.119984 -468.119992,0 0,-648.119984 z" /></clipPath><clipPath
       id="clipPath4563"
       clipPathUnits="userSpaceOnUse"><path
         inkscape:connector-curvature="0"
         id="path4565"
         d="m 71.999998,71.880016 468.119992,0 0,648.119984 -468.119992,0 0,-648.119984 z" /></clipPath><clipPath
       id="clipPath4573"
       clipPathUnits="userSpaceOnUse"><path
         inkscape:connector-curvature="0"
         id="path4575"
         d="m 71.999998,71.880016 468.119992,0 0,648.119984 -468.119992,0 0,-648.119984 z" /></clipPath><clipPath
       id="clipPath4583"
       clipPathUnits="userSpaceOnUse"><path
         inkscape:connector-curvature="0"
         id="path4585"
         d="m 71.999998,71.880016 468.119992,0 0,648.119984 -468.119992,0 0,-648.119984 z" /></clipPath><clipPath
       id="clipPath4593"
       clipPathUnits="userSpaceOnUse"><path
         inkscape:connector-curvature="0"
         id="path4595"
         d="m 71.999998,71.880016 468.119992,0 0,648.119984 -468.119992,0 0,-648.119984 z" /></clipPath><clipPath
       id="clipPath4603"
       clipPathUnits="userSpaceOnUse"><path
         inkscape:connector-curvature="0"
         id="path4605"
         d="m 71.999998,71.880016 468.119992,0 0,648.119984 -468.119992,0 0,-648.119984 z" /></clipPath><clipPath
       id="clipPath4613"
       clipPathUnits="userSpaceOnUse"><path
         inkscape:connector-curvature="0"
         id="path4615"
         d="m 71.999998,71.880016 468.119992,0 0,648.119984 -468.119992,0 0,-648.119984 z" /></clipPath><clipPath
       id="clipPath4623"
       clipPathUnits="userSpaceOnUse"><path
         inkscape:connector-curvature="0"
         id="path4625"
         d="m 71.999998,71.880016 468.119992,0 0,648.119984 -468.119992,0 0,-648.119984 z" /></clipPath><clipPath
       id="clipPath4633"
       clipPathUnits="userSpaceOnUse"><path
         inkscape:connector-curvature="0"
         id="path4635"
         d="m 71.999998,71.880016 468.119992,0 0,648.119984 -468.119992,0 0,-648.119984 z" /></clipPath><clipPath
       id="clipPath4643"
       clipPathUnits="userSpaceOnUse"><path
         inkscape:connector-curvature="0"
         id="path4645"
         d="m 71.999998,71.880016 468.119992,0 0,648.119984 -468.119992,0 0,-648.119984 z" /></clipPath><clipPath
       id="clipPath4653"
       clipPathUnits="userSpaceOnUse"><path
         inkscape:connector-curvature="0"
         id="path4655"
         d="m 71.999998,71.880016 468.119992,0 0,648.119984 -468.119992,0 0,-648.119984 z" /></clipPath><clipPath
       id="clipPath4663"
       clipPathUnits="userSpaceOnUse"><path
         inkscape:connector-curvature="0"
         id="path4665"
         d="m 71.999998,71.880016 468.119992,0 0,648.119984 -468.119992,0 0,-648.119984 z" /></clipPath><clipPath
       id="clipPath4673"
       clipPathUnits="userSpaceOnUse"><path
         inkscape:connector-curvature="0"
         id="path4675"
         d="m 71.999998,71.880016 468.119992,0 0,648.119984 -468.119992,0 0,-648.119984 z" /></clipPath><clipPath
       id="clipPath4683"
       clipPathUnits="userSpaceOnUse"><path
         inkscape:connector-curvature="0"
         id="path4685"
         d="m 71.999998,71.880016 468.119992,0 0,648.119984 -468.119992,0 0,-648.119984 z" /></clipPath><clipPath
       id="clipPath4693"
       clipPathUnits="userSpaceOnUse"><path
         inkscape:connector-curvature="0"
         id="path4695"
         d="m 71.999998,71.880016 468.119992,0 0,648.119984 -468.119992,0 0,-648.119984 z" /></clipPath><clipPath
       id="clipPath4703"
       clipPathUnits="userSpaceOnUse"><path
         inkscape:connector-curvature="0"
         id="path4705"
         d="m 71.999998,71.880016 468.119992,0 0,648.119984 -468.119992,0 0,-648.119984 z" /></clipPath><clipPath
       id="clipPath4713"
       clipPathUnits="userSpaceOnUse"><path
         inkscape:connector-curvature="0"
         id="path4715"
         d="m 71.999998,71.880016 468.119992,0 0,648.119984 -468.119992,0 0,-648.119984 z" /></clipPath><clipPath
       id="clipPath4723"
       clipPathUnits="userSpaceOnUse"><path
         inkscape:connector-curvature="0"
         id="path4725"
         d="m 71.999998,71.880016 468.119992,0 0,648.119984 -468.119992,0 0,-648.119984 z" /></clipPath><clipPath
       id="clipPath4733"
       clipPathUnits="userSpaceOnUse"><path
         inkscape:connector-curvature="0"
         id="path4735"
         d="m 71.999998,71.880016 468.119992,0 0,648.119984 -468.119992,0 0,-648.119984 z" /></clipPath><clipPath
       id="clipPath4743"
       clipPathUnits="userSpaceOnUse"><path
         inkscape:connector-curvature="0"
         id="path4745"
         d="m 71.999998,71.880016 468.119992,0 0,648.119984 -468.119992,0 0,-648.119984 z" /></clipPath><clipPath
       id="clipPath4753"
       clipPathUnits="userSpaceOnUse"><path
         inkscape:connector-curvature="0"
         id="path4755"
         d="m 71.999998,71.880016 468.119992,0 0,648.119984 -468.119992,0 0,-648.119984 z" /></clipPath><filter
       style="color-interpolation-filters:sRGB"
       id="filter3038"
       inkscape:label="Invert"
       x="0"
       y="0"
       width="1"
       height="1"
       inkscape:menu="Color"
       inkscape:menu-tooltip="Invert colors"><feColorMatrix
         id="feColorMatrix3040"
         type="saturate"
         values="1"
         result="fbSourceGraphic" /><feColorMatrix
         id="feColorMatrix3042"
         in="fbSourceGraphic"
         values="-1 0 0 0 1 0 -1 0 0 1 0 0 -1 0 1 0 0 0 1 0 " /></filter><filter
       style="color-interpolation-filters:sRGB"
       id="filter3038-4"
       inkscape:label="Invert"
       x="0"
       y="0"
       width="1"
       height="1"
       inkscape:menu="Color"
       inkscape:menu-tooltip="Invert colors"><feColorMatrix
         id="feColorMatrix3040-4"
         type="saturate"
         values="1"
         result="fbSourceGraphic" /><feColorMatrix
         id="feColorMatrix3042-3"
         in="fbSourceGraphic"
         values="-1 0 0 0 1 0 -1 0 0 1 0 0 -1 0 1 0 0 0 1 0 " /></filter><clipPath
       id="clipPath4263-7"
       clipPathUnits="userSpaceOnUse"><path
         inkscape:connector-curvature="0"
         id="path4265-5"
         d="M 71.999998,71.880016 H 540.11999 V 720 H 71.999998 Z" /></clipPath><clipPath
       id="clipPath4273-8"
       clipPathUnits="userSpaceOnUse"><path
         inkscape:connector-curvature="0"
         id="path4275-7"
         d="M 71.999998,71.880016 H 540.11999 V 720 H 71.999998 Z" /></clipPath><clipPath
       id="clipPath4283-0"
       clipPathUnits="userSpaceOnUse"><path
         inkscape:connector-curvature="0"
         id="path4285-4"
         d="M 71.999998,71.880016 H 540.11999 V 720 H 71.999998 Z" /></clipPath><clipPath
       id="clipPath4293-8"
       clipPathUnits="userSpaceOnUse"><path
         inkscape:connector-curvature="0"
         id="path4295-0"
         d="M 71.999998,71.880016 H 540.11999 V 720 H 71.999998 Z" /></clipPath><clipPath
       id="clipPath4303-4"
       clipPathUnits="userSpaceOnUse"><path
         inkscape:connector-curvature="0"
         id="path4305-2"
         d="M 71.999998,71.880016 H 540.11999 V 720 H 71.999998 Z" /></clipPath><clipPath
       id="clipPath4313-9"
       clipPathUnits="userSpaceOnUse"><path
         inkscape:connector-curvature="0"
         id="path4315-6"
         d="M 71.999998,71.880016 H 540.11999 V 720 H 71.999998 Z" /></clipPath><clipPath
       id="clipPath4323-1"
       clipPathUnits="userSpaceOnUse"><path
         inkscape:connector-curvature="0"
         id="path4325-0"
         d="M 71.999998,71.880016 H 540.11999 V 720 H 71.999998 Z" /></clipPath><clipPath
       id="clipPath4333-4"
       clipPathUnits="userSpaceOnUse"><path
         inkscape:connector-curvature="0"
         id="path4335-2"
         d="M 71.999998,71.880016 H 540.11999 V 720 H 71.999998 Z" /></clipPath><clipPath
       id="clipPath4343-2"
       clipPathUnits="userSpaceOnUse"><path
         inkscape:connector-curvature="0"
         id="path4345-2"
         d="M 71.999998,71.880016 H 540.11999 V 720 H 71.999998 Z" /></clipPath><clipPath
       id="clipPath4353-0"
       clipPathUnits="userSpaceOnUse"><path
         inkscape:connector-curvature="0"
         id="path4355-5"
         d="M 71.999998,71.880016 H 540.11999 V 720 H 71.999998 Z" /></clipPath><clipPath
       id="clipPath4363-5"
       clipPathUnits="userSpaceOnUse"><path
         inkscape:connector-curvature="0"
         id="path4365-2"
         d="M 71.999998,71.880016 H 540.11999 V 720 H 71.999998 Z" /></clipPath><clipPath
       id="clipPath4373-9"
       clipPathUnits="userSpaceOnUse"><path
         inkscape:connector-curvature="0"
         id="path4375-0"
         d="M 71.999998,71.880016 H 540.11999 V 720 H 71.999998 Z" /></clipPath><clipPath
       id="clipPath4383-2"
       clipPathUnits="userSpaceOnUse"><path
         inkscape:connector-curvature="0"
         id="path4385-8"
         d="M 71.999998,71.880016 H 540.11999 V 720 H 71.999998 Z" /></clipPath><clipPath
       id="clipPath4393-3"
       clipPathUnits="userSpaceOnUse"><path
         inkscape:connector-curvature="0"
         id="path4395-8"
         d="M 71.999998,71.880016 H 540.11999 V 720 H 71.999998 Z" /></clipPath><clipPath
       id="clipPath4403-0"
       clipPathUnits="userSpaceOnUse"><path
         inkscape:connector-curvature="0"
         id="path4405-4"
         d="M 71.999998,71.880016 H 540.11999 V 720 H 71.999998 Z" /></clipPath><clipPath
       id="clipPath4413-0"
       clipPathUnits="userSpaceOnUse"><path
         inkscape:connector-curvature="0"
         id="path4415-9"
         d="M 71.999998,71.880016 H 540.11999 V 720 H 71.999998 Z" /></clipPath><clipPath
       id="clipPath4423-1"
       clipPathUnits="userSpaceOnUse"><path
         inkscape:connector-curvature="0"
         id="path4425-9"
         d="M 71.999998,71.880016 H 540.11999 V 720 H 71.999998 Z" /></clipPath><clipPath
       id="clipPath4433-6"
       clipPathUnits="userSpaceOnUse"><path
         inkscape:connector-curvature="0"
         id="path4435-2"
         d="M 71.999998,71.880016 H 540.11999 V 720 H 71.999998 Z" /></clipPath><clipPath
       id="clipPath4443-5"
       clipPathUnits="userSpaceOnUse"><path
         inkscape:connector-curvature="0"
         id="path4445-4"
         d="M 71.999998,71.880016 H 540.11999 V 720 H 71.999998 Z" /></clipPath><clipPath
       id="clipPath4453-4"
       clipPathUnits="userSpaceOnUse"><path
         inkscape:connector-curvature="0"
         id="path4455-9"
         d="M 71.999998,71.880016 H 540.11999 V 720 H 71.999998 Z" /></clipPath><clipPath
       id="clipPath4463-9"
       clipPathUnits="userSpaceOnUse"><path
         inkscape:connector-curvature="0"
         id="path4465-3"
         d="M 71.999998,71.880016 H 540.11999 V 720 H 71.999998 Z" /></clipPath><clipPath
       id="clipPath4473-6"
       clipPathUnits="userSpaceOnUse"><path
         inkscape:connector-curvature="0"
         id="path4475-0"
         d="M 71.999998,71.880016 H 540.11999 V 720 H 71.999998 Z" /></clipPath><clipPath
       id="clipPath4483-5"
       clipPathUnits="userSpaceOnUse"><path
         inkscape:connector-curvature="0"
         id="path4485-0"
         d="M 71.999998,71.880016 H 540.11999 V 720 H 71.999998 Z" /></clipPath><clipPath
       id="clipPath4493-2"
       clipPathUnits="userSpaceOnUse"><path
         inkscape:connector-curvature="0"
         id="path4495-9"
         d="M 71.999998,71.880016 H 540.11999 V 720 H 71.999998 Z" /></clipPath><clipPath
       id="clipPath4503-4"
       clipPathUnits="userSpaceOnUse"><path
         inkscape:connector-curvature="0"
         id="path4505-3"
         d="M 71.999998,71.880016 H 540.11999 V 720 H 71.999998 Z" /></clipPath><clipPath
       id="clipPath4513-5"
       clipPathUnits="userSpaceOnUse"><path
         inkscape:connector-curvature="0"
         id="path4515-1"
         d="M 71.999998,71.880016 H 540.11999 V 720 H 71.999998 Z" /></clipPath><clipPath
       id="clipPath4523-7"
       clipPathUnits="userSpaceOnUse"><path
         inkscape:connector-curvature="0"
         id="path4525-4"
         d="M 71.999998,71.880016 H 540.11999 V 720 H 71.999998 Z" /></clipPath><clipPath
       id="clipPath4533-3"
       clipPathUnits="userSpaceOnUse"><path
         inkscape:connector-curvature="0"
         id="path4535-1"
         d="M 71.999998,71.880016 H 540.11999 V 720 H 71.999998 Z" /></clipPath><clipPath
       id="clipPath4543-4"
       clipPathUnits="userSpaceOnUse"><path
         inkscape:connector-curvature="0"
         id="path4545-6"
         d="M 71.999998,71.880016 H 540.11999 V 720 H 71.999998 Z" /></clipPath><clipPath
       id="clipPath4553-9"
       clipPathUnits="userSpaceOnUse"><path
         inkscape:connector-curvature="0"
         id="path4555-4"
         d="M 71.999998,71.880016 H 540.11999 V 720 H 71.999998 Z" /></clipPath><clipPath
       id="clipPath4563-2"
       clipPathUnits="userSpaceOnUse"><path
         inkscape:connector-curvature="0"
         id="path4565-2"
         d="M 71.999998,71.880016 H 540.11999 V 720 H 71.999998 Z" /></clipPath><clipPath
       id="clipPath4573-6"
       clipPathUnits="userSpaceOnUse"><path
         inkscape:connector-curvature="0"
         id="path4575-4"
         d="M 71.999998,71.880016 H 540.11999 V 720 H 71.999998 Z" /></clipPath><clipPath
       id="clipPath4583-1"
       clipPathUnits="userSpaceOnUse"><path
         inkscape:connector-curvature="0"
         id="path4585-2"
         d="M 71.999998,71.880016 H 540.11999 V 720 H 71.999998 Z" /></clipPath><clipPath
       id="clipPath4593-8"
       clipPathUnits="userSpaceOnUse"><path
         inkscape:connector-curvature="0"
         id="path4595-8"
         d="M 71.999998,71.880016 H 540.11999 V 720 H 71.999998 Z" /></clipPath><clipPath
       id="clipPath4603-9"
       clipPathUnits="userSpaceOnUse"><path
         inkscape:connector-curvature="0"
         id="path4605-28"
         d="M 71.999998,71.880016 H 540.11999 V 720 H 71.999998 Z" /></clipPath><clipPath
       id="clipPath4613-8"
       clipPathUnits="userSpaceOnUse"><path
         inkscape:connector-curvature="0"
         id="path4615-8"
         d="M 71.999998,71.880016 H 540.11999 V 720 H 71.999998 Z" /></clipPath><clipPath
       id="clipPath4623-6"
       clipPathUnits="userSpaceOnUse"><path
         inkscape:connector-curvature="0"
         id="path4625-8"
         d="M 71.999998,71.880016 H 540.11999 V 720 H 71.999998 Z" /></clipPath><clipPath
       id="clipPath4633-3"
       clipPathUnits="userSpaceOnUse"><path
         inkscape:connector-curvature="0"
         id="path4635-8"
         d="M 71.999998,71.880016 H 540.11999 V 720 H 71.999998 Z" /></clipPath><clipPath
       id="clipPath4643-3"
       clipPathUnits="userSpaceOnUse"><path
         inkscape:connector-curvature="0"
         id="path4645-3"
         d="M 71.999998,71.880016 H 540.11999 V 720 H 71.999998 Z" /></clipPath><clipPath
       id="clipPath4653-3"
       clipPathUnits="userSpaceOnUse"><path
         inkscape:connector-curvature="0"
         id="path4655-8"
         d="M 71.999998,71.880016 H 540.11999 V 720 H 71.999998 Z" /></clipPath><clipPath
       id="clipPath4663-0"
       clipPathUnits="userSpaceOnUse"><path
         inkscape:connector-curvature="0"
         id="path4665-4"
         d="M 71.999998,71.880016 H 540.11999 V 720 H 71.999998 Z" /></clipPath><clipPath
       id="clipPath4673-7"
       clipPathUnits="userSpaceOnUse"><path
         inkscape:connector-curvature="0"
         id="path4675-6"
         d="M 71.999998,71.880016 H 540.11999 V 720 H 71.999998 Z" /></clipPath><clipPath
       id="clipPath4683-8"
       clipPathUnits="userSpaceOnUse"><path
         inkscape:connector-curvature="0"
         id="path4685-9"
         d="M 71.999998,71.880016 H 540.11999 V 720 H 71.999998 Z" /></clipPath><clipPath
       id="clipPath4693-0"
       clipPathUnits="userSpaceOnUse"><path
         inkscape:connector-curvature="0"
         id="path4695-6"
         d="M 71.999998,71.880016 H 540.11999 V 720 H 71.999998 Z" /></clipPath><clipPath
       id="clipPath4703-8"
       clipPathUnits="userSpaceOnUse"><path
         inkscape:connector-curvature="0"
         id="path4705-7"
         d="M 71.999998,71.880016 H 540.11999 V 720 H 71.999998 Z" /></clipPath><clipPath
       id="clipPath4713-9"
       clipPathUnits="userSpaceOnUse"><path
         inkscape:connector-curvature="0"
         id="path4715-0"
         d="M 71.999998,71.880016 H 540.11999 V 720 H 71.999998 Z" /></clipPath><clipPath
       id="clipPath4723-3"
       clipPathUnits="userSpaceOnUse"><path
         inkscape:connector-curvature="0"
         id="path4725-3"
         d="M 71.999998,71.880016 H 540.11999 V 720 H 71.999998 Z" /></clipPath><clipPath
       id="clipPath4733-3"
       clipPathUnits="userSpaceOnUse"><path
         inkscape:connector-curvature="0"
         id="path4735-7"
         d="M 71.999998,71.880016 H 540.11999 V 720 H 71.999998 Z" /></clipPath><clipPath
       id="clipPath4743-3"
       clipPathUnits="userSpaceOnUse"><path
         inkscape:connector-curvature="0"
         id="path4745-2"
         d="M 71.999998,71.880016 H 540.11999 V 720 H 71.999998 Z" /></clipPath><clipPath
       id="clipPath4753-6"
       clipPathUnits="userSpaceOnUse"><path
         inkscape:connector-curvature="0"
         id="path4755-5"
         d="M 71.999998,71.880016 H 540.11999 V 720 H 71.999998 Z" /></clipPath></defs><sodipodi:namedview
     pagecolor="#ffffff"
     bordercolor="#666666"
     borderopacity="1"
     objecttolerance="10"
     gridtolerance="10"
     guidetolerance="10"
     inkscape:pageopacity="0"
     inkscape:pageshadow="2"
     inkscape:window-width="1920"
     inkscape:window-height="1031"
     id="namedview4"
     showgrid="false"
     inkscape:zoom="1.1288483"
     inkscape:cx="125.52351"
     inkscape:cy="346.76562"
     inkscape:current-layer="g10"
     units="mm"
     width="115mm"
     inkscape:window-x="0"
     inkscape:window-y="25"
     inkscape:window-maximized="1"
     showguides="true" /><g
     id="g10"
     inkscape:groupmode="layer"
     inkscape:label="Designvorschlag_deckseite"
     transform="matrix(1.25,0,0,-1.25,0,595.27551)"><g
       id="g12" /><g
       id="g38"
       transform="matrix(0.50000022,0,0,0.50000022,32.745199,28.886477)"><text
         transform="matrix(1,0,0,-1,45.063747,627.13123)"
         style="font-variant:normal;font-weight:normal;line-height:0%;font-family:'DejaVu Sans';-inkscape-font-specification:DejaVuSansCondensed;writing-mode:lr-tb;fill:#000000;fill-opacity:1;fill-rule:nonzero;stroke:none"
         id="text40"><tspan
           x="0 17.365679 29.188438 46.81044 65.105278 76.92804 94.550034 122.61707 150.68411 168.94691 186.66504 196.78967 208.06775 217.19916 233.76384 256.44815 274.74298 293.03784 315.36972 323.86032 342.15515 352.5361 371.40765 389.02966 407.29248 417.41711 435.13522 446.95798 464.67612 482.9389"
           y="0"
           sodipodi:role="line"
           id="tspan42"
           style="font-style:normal;font-variant:normal;font-weight:normal;font-stretch:semi-condensed;font-size:32.0399971px;line-height:1.25;font-family:'DejaVu Sans';-inkscape-font-specification:'DejaVu Sans Semi-Condensed'">Programmheft FOSSGIS-Konferenz</tspan></text>
</g><g
       id="g84"
       transform="matrix(0.50000022,0,0,0.50000022,33.407389,28.886477)"><text
         transform="matrix(1,0,0,-1,126.0675,589.95752)"
         style="font-variant:normal;font-weight:normal;line-height:0%;font-family:'DejaVu Sans';-inkscape-font-specification:DejaVuSansCondensed;writing-mode:lr-tb;fill:#000000;fill-opacity:1;fill-rule:nonzero;stroke:none"
         id="text86"><tspan
           x="0"
           sodipodi:role="line"
           id="tspan88"
           y="0"
           style="font-size:22.43999863px;line-height:1.25">22. bis 25. März 2017 in Paussau</tspan></text>
</g><g
       id="g90" /><g
       id="g4247"
       transform="matrix(0,-0.44318768,0.44318768,0,-31.356942,349.70096)" /><g
       id="g4759"
       transform="matrix(0,-0.44318768,0.44318768,0,-31.356942,349.70096)" /><path
       inkscape:connector-curvature="0"
       d="m 28.346432,477.63731 0,-14.17321"
       id="path4591"
       style="fill:none;stroke:#000000;stroke-width:0.7999993px;stroke-linecap:butt;stroke-linejoin:miter;stroke-opacity:1" /><path
       inkscape:connector-curvature="0"
       d="M 4.5155517e-7,449.29088 14.173216,449.29088"
       id="path4593"
       style="fill:none;stroke:#000000;stroke-width:0.7999993px;stroke-linecap:butt;stroke-linejoin:miter;stroke-opacity:1" /><path
       inkscape:connector-curvature="0"
       d="m 325.98396,477.63731 0,-14.17321"
       id="path4595-2"
       style="fill:none;stroke:#000000;stroke-width:0.7999993px;stroke-linecap:butt;stroke-linejoin:miter;stroke-opacity:1" /><path
       inkscape:connector-curvature="0"
       d="m 354.3304,449.29088 -14.17322,0"
       id="path4597-5"
       style="fill:none;stroke:#000000;stroke-width:0.7999993px;stroke-linecap:butt;stroke-linejoin:miter;stroke-opacity:1" /><path
       inkscape:connector-curvature="0"
       d="m 325.98396,-5.809646e-5 0,14.17321109646"
       id="path4601"
       style="fill:none;stroke:#000000;stroke-width:0.7999993px;stroke-linecap:butt;stroke-linejoin:miter;stroke-opacity:1" /><path
       inkscape:connector-curvature="0"
       d="m 340.15718,28.346389 14.17322,-1.6e-5"
       id="path4603"
       style="fill:none;stroke:#000000;stroke-width:0.7999993px;stroke-linecap:butt;stroke-linejoin:miter;stroke-opacity:1" /><path
       inkscape:connector-curvature="0"
       d="m 28.346432,14.173169 0,-14.17322709646"
       id="path4605-2"
       style="fill:none;stroke:#000000;stroke-width:0.7999993px;stroke-linecap:butt;stroke-linejoin:miter;stroke-opacity:1" /><path
       inkscape:connector-curvature="0"
       d="M 14.173216,28.346389 4.5155517e-7,28.346373"
       id="path4607-3"
       style="fill:none;stroke:#000000;stroke-width:0.7999993px;stroke-linecap:butt;stroke-linejoin:miter;stroke-opacity:1" /><g
       id="g4382"
       transform="matrix(0.97468411,0,0,0.97468411,318.42134,91.801302)"><g
         transform="matrix(0.00421305,0,0,-0.00421305,-272.96885,350.40546)"
         id="g51"
         style="visibility:visible"><g
           style="fill:#ee7f00;stroke:none"
           id="g53"><path
             d="m 8500,16000 -7500,0 0,-15000 15000,0 0,15000 -7500,0 z"
             id="path55"
             inkscape:connector-curvature="0" /></g><g
           style="fill:none;stroke:none"
           id="g57"><rect
             x="1000"
             y="1000"
             width="15001"
             height="15001"
             id="rect59" /></g></g><g
         transform="matrix(0.00421305,0,0,-0.00421305,-272.96885,350.40546)"
         id="g63"
         style="visibility:visible"><g
           style="fill:#ffffff;stroke:none"
           id="g65"><path
             d="m 6500,9250 -4750,0 0,-7500 9500,0 0,7500 -4750,0 z"
             id="path67"
             inkscape:connector-curvature="0" /></g><g
           style="fill:none;stroke:none"
           id="g69"><rect
             x="1750"
             y="1750"
             width="9501"
             height="7501"
             id="rect71" /></g></g><g
         transform="matrix(0.00421305,0,0,-0.00421305,-272.96885,350.40546)"
         id="g75"
         style="visibility:visible"><g
           style="fill:none;stroke:none"
           id="g77"><rect
             x="1947"
             y="3569"
             width="9100"
             height="4354"
             id="rect79" /></g><g
           style="font-weight:700;font-size:3528px;font-family:'Droid Sans embedded'"
           id="g81"><g
             style="fill:#ee7f00;stroke:none"
             id="g83"><text
               id="text85"
               style="font-size:3821.18530273px;line-height:0%;stroke-width:1.08310246"
               x="2394.9783"
               y="6820.3677"><tspan
                 id="tspan87"
                 style="font-style:normal;font-variant:normal;font-weight:bold;font-stretch:normal;font-family:'Droid Sans';-inkscape-font-specification:'Droid Sans Bold';stroke-width:1.08310246">2017</tspan></text>
</g></g></g><g
         transform="matrix(0.00421305,0,0,-0.00421305,-272.96885,350.40546)"
         id="g91"
         style="visibility:visible"><g
           style="fill:none;stroke:none"
           id="g93"><rect
             x="1113"
             y="10650"
             width="14837"
             height="5836"
             id="rect95" /></g><g
           style="font-weight:700;font-size:4798px;font-family:'Droid Sans embedded'"
           id="g97"><g
             style="fill:#ffffff;stroke:none"
             id="g99"><text
               id="text101"
               style="line-height:0%"><tspan
                 id="tspan103"
                 y="15228"
                 x="1363 4707 9313 12505">FOSS</tspan></text>
</g></g></g><g
         transform="matrix(0.00421305,0,0,-0.00421305,-272.96885,350.40546)"
         id="g107"
         style="visibility:visible"><g
           style="fill:none;stroke:none"
           id="g109"><rect
             x="11597"
             y="794"
             width="3974"
             height="5836"
             id="rect111" /></g><g
           style="font-weight:700;font-size:4798px;font-family:'Droid Sans embedded'"
           id="g113"><g
             style="fill:#ffffff;stroke:none"
             id="g115"><text
               id="text117"
               style="line-height:0%"><tspan
                 x="11847"
                 y="5372"
                 id="tspan119">G</tspan></text>
</g></g></g><g
         transform="matrix(0.00421305,0,0,-0.00421305,-272.96885,350.40546)"
         id="g123"
         style="visibility:visible"><g
           style="fill:none;stroke:none"
           id="g125"><rect
             x="12842"
             y="5672"
             width="3003"
             height="5836"
             id="rect127" /></g><g
           style="font-weight:700;font-size:4798px;font-family:'Droid Sans embedded'"
           id="g129"><g
             style="fill:#ffffff;stroke:none"
             id="g131"><text
               id="text133"
               style="line-height:0%"><tspan
                 x="13092"
                 y="10250"
                 id="tspan135">I</tspan></text>
</g></g></g></g><path
       style="color:#000000;clip-rule:nonzero;display:inline;overflow:visible;visibility:visible;opacity:1;isolation:auto;mix-blend-mode:normal;color-interpolation:sRGB;color-interpolation-filters:linearRGB;solid-color:#000000;solid-opacity:1;fill:#000000;fill-opacity:1;fill-rule:evenodd;stroke:none;stroke-width:0.26198027;stroke-linecap:butt;stroke-linejoin:miter;stroke-miterlimit:4;stroke-dasharray:none;stroke-dashoffset:0;stroke-opacity:1;color-rendering:auto;image-rendering:auto;shape-rendering:auto;text-rendering:auto;enable-background:accumulate"
       d="m 132.30688,145.62757 -0.0621,-2.65276 c -0.26243,-0.056 -0.45013,-0.28764 -0.45054,-0.55597 2e-4,-0.25851 0.17455,-0.48444 0.42456,-0.55019 l -0.0693,-2.99213 c -0.25672,-0.70018 -0.63081,-1.56404 -1.51772,-1.98416 -0.88691,-0.42012 -2.6597,-1.2376 -3.40657,-2.2412 -0.74687,-1.00361 -1.58752,-2.24033 -1.54083,-3.47734 0.0467,-1.23701 0.58317,-2.14708 0.60651,-3.034 0.0234,-0.88691 0.0695,-0.98016 -0.23394,-1.44696 -0.30341,-0.46679 -0.90977,-1.04983 -0.90977,-1.04985 l 2.94159,0.51265 -2.94159,-0.51409 0.72349,-0.72348 0.0216,-11.4674 -0.37401,-0.0491 -1.10905,1.19858 v 0.48665 l 0.4491,0.25993 v 1.01086 l -0.5964,0.5964 v 0.0592 c 0.2868,0.0559 0.49384,0.3071 0.49387,0.5993 1.1e-4,0.3374 -0.27345,0.61094 -0.61085,0.61083 -0.3374,1.1e-4 -0.61095,-0.27343 -0.61084,-0.61083 6.7e-4,-0.28617 0.19997,-0.53349 0.47944,-0.59497 v -0.0491 l -0.77547,-0.77546 v -0.80869 l 0.48521,-0.28014 v -0.50398 h -0.0159 l -1.64913,-1.64914 h -9.3e-4 v -0.002 l -0.007,-0.007 h 0.007 l 0.0332,-2.4015 h -0.58342 l 1.14372,-1.1437 -0.21084,-8.33232 -8.53737,0.43178 v 6.03046 l 0.68883,0.69027 v 0.67726 h -0.49965 v 1.93074 l -1.06863,1.85131 0.47367,0.49531 v 0.80146 l -0.71193,0.65417 -1.12927,-0.86212 0.74225,-1.03973 -1.58848,-1.58849 v 10.13485 l 0.42312,0.73358 c 0,0 -0.47824,0.54873 -0.62529,1.01086 -0.14705,0.46212 -0.0845,1.44993 0.12563,2.33218 0.21006,0.88224 0.48381,2.28932 -0.20939,3.50766 -0.69318,1.21834 -2.8142,2.31101 -3.59141,3.06721 -0.77722,0.75621 -1.57573,1.4489 -1.72279,2.20511 l -0.0996,2.71197 c 0.19477,0.0779 0.32235,0.26675 0.32203,0.47655 -6.8e-4,0.22244 -0.14478,0.41903 -0.3567,0.48665 l -0.0896,2.4015 h -0.11842 l -0.0548,-2.38851 c -0.23604,-0.0502 -0.40505,-0.25832 -0.40579,-0.49964 1.8e-4,-0.23288 0.15739,-0.43635 0.38268,-0.49532 l -0.0635,-2.6932 c -0.23105,-0.63017 -0.56789,-1.40672 -1.3661,-1.78489 -0.79823,-0.3781 -2.39358,-1.11412 -3.06576,-2.01737 -0.67219,-0.90324 -1.428333,-2.016 -1.386314,-3.1293 0.04201,-1.11331 0.524851,-1.93253 0.545861,-2.73075 0.021,-0.79823 0.06225,-0.88244 -0.210845,-1.30256 -0.273075,-0.42012 -0.818783,-0.94441 -0.818783,-0.94442 l 2.648431,0.46065 -2.646989,-0.4621 0.651275,-0.65128 0.01878,-10.32224 -0.925648,-0.11986 -0.733595,0.79135 v 0.48665 l 0.449117,0.25994 v 1.01085 l -0.596412,0.5964 v 0.0592 c 0.286807,0.0559 0.493839,0.3071 0.493873,0.59929 1.11e-4,0.3374 -0.273436,0.61096 -0.610837,0.61085 -0.337407,1.1e-4 -0.610954,-0.27345 -0.610843,-0.61085 6.65e-4,-0.28615 0.199962,-0.53347 0.479435,-0.59495 v -0.0491 l -0.775468,-0.77547 v -0.80868 l 0.485209,-0.28015 v -0.50398 h -0.01587 l -1.090273,-1.12061 0.0303,-2.16756 h -0.525648 l 1.028187,-1.02961 -0.189177,-7.49909 0.190618,-15.568585 -6.40158,-0.362465 -2.772624,-3.663617 0.724923,-0.09386 -0.758139,-0.79713 -1.133602,0.04048 -0.05483,0.883783 -0.411554,0.363898 v 0.857785 H 84.16487 v -1.023856 h -1.913395 v 1.139382 h -1.485954 v -1.106157 h -1.468624 v -0.876556 l -0.973309,0.03466 -0.826011,0.05055 -0.42889,-0.661382 -4.076625,0.09386 v 0.698846 H 71.57252 V 79.44266 L 25.708691,80.504048 19.998819,76.345112 10.162605,76.642559 9.6340736,70.370938 9.5026632,66.31164 9.693075,15.00165 341.66976,15.511719 341.29632,60.921002 h -2.19499 v 1.223125 l -0.46499,0.805799 h -1.12927 l -0.45777,-0.791354 v -2.498245 l -1.07439,0.583397 h -2.77696 v 1.166813 h -1.0816 v 0.345136 h -6.27163 l -14.80755,-0.04621 -1.23323,-0.711927 h -0.95742 v 2.310511 h -1.17403 v -2.372609 l -2.48237,-0.664274 v 3.2636 l 0.44333,0.443343 h 0.77114 v 0.828904 h -0.8058 l -0.33791,0.337909 c 0,0 0.0457,1.843823 -0.0477,1.867187 -0.0934,0.02338 -0.53576,0.327678 -0.53576,0.771141 0,0.443453 -0.0231,0.310469 -0.0231,0.310469 h -0.35957 c 0.0677,0.405284 0.35639,0.481623 0.34368,0.720596 -0.0132,0.247558 -0.14471,0.165858 -0.23682,0.479433 -0.0921,0.313565 -0.0837,0.389895 -0.0837,0.389895 h -0.0447 -0.0953 -0.0433 c 0,0 0.006,-0.07634 -0.0852,-0.389895 -0.0922,-0.313575 -0.22369,-0.231875 -0.23683,-0.479433 -0.0127,-0.238982 0.27735,-0.315266 0.34512,-0.720596 h -0.3278 l -0.65994,-0.890992 -2.2802,0.111191 c 0.0811,0.365488 0.34435,0.450395 0.33214,0.680162 -0.0132,0.247549 -0.14472,0.165858 -0.23683,0.479433 -0.0921,0.313565 -0.0837,0.389896 -0.0837,0.389896 h -0.0448 -0.0953 -0.0433 c 0,0 0.006,-0.07634 -0.0852,-0.389896 -0.0922,-0.313575 -0.22369,-0.231884 -0.23683,-0.479433 -0.0121,-0.228104 0.24737,-0.314296 0.3307,-0.672935 l -3.33438,0.161737 c 0.10017,0.136598 0.20712,0.226717 0.19928,0.374018 -0.0132,0.24754 -0.14471,0.165849 -0.23682,0.479423 -0.0921,0.313566 -0.0837,0.389905 -0.0837,0.389905 h -0.0447 -0.0953 -0.0433 c 0,0 0.006,-0.07634 -0.0852,-0.389905 -0.0921,-0.313574 -0.22367,-0.231902 -0.23682,-0.479423 -0.007,-0.139935 0.0889,-0.227383 0.18484,-0.352364 l -2.74374,0.132855 c -6e-5,0.0018 0.002,0.0028 0.002,0.0046 -0.0132,0.247558 -0.14472,0.165858 -0.23683,0.479442 -0.0921,0.313556 -0.0837,0.389887 -0.0837,0.389887 h -0.0448 -0.0953 -0.0433 c 0,0 0.008,-0.07634 -0.0837,-0.389887 -0.086,-0.29265 -0.2032,-0.250294 -0.22961,-0.443342 l -0.48809,0.02311 v 2.638328 c 0,0 -0.21047,0.185738 -0.67727,0.384119 -0.4668,0.1984 -0.89885,0.946112 -1.4123,0.922766 -0.51348,-0.02338 -0.33834,-0.828857 -0.58342,-1.120602 -0.24506,-0.291763 -0.5603,-0.252716 -0.5603,-0.252716 v -2.112668 l -6.26583,0.313362 V 69.1915 l -0.38557,0.222383 v 1.783436 l -0.31336,0.246939 -0.0159,0.561743 -0.59495,-0.01738 0.0174,-0.528537 -0.49532,-0.147291 -0.0447,-1.802205 -0.42023,-0.420238 v 0.769699 h -0.81734 v -1.148042 l -1.95961,-0.02015 v 0.467881 h -0.79424 v -0.476541 l -1.32855,-0.01303 v 2.899703 l 0.37112,-0.09965 v 0.56031 l -1.21302,0.700375 -2.42749,6.956117 -2.33362,-0.09387 -2.52136,-7.002318 -1.16681,0.606511 -2.75385,-1.493178 v -2.707644 l -0.90977,0.03318 v 0.761029 h -0.61951 v -0.739375 l -3.29538,0.118419 -0.0303,1.133596 H 257.718 v -1.072941 h -1.91484 l 0.0939,2.007251 -1.99861,0.340811 v 2.095355 l 0.32059,0.186284 -3.04267,0.814458 -3.20296,-0.857785 0.26861,-0.268594 v -1.1466 l -22.12613,0.88955 -0.5603,3.548091 -0.0447,6.294726 -0.51553,0.893885 v 3.686731 l -10.4089,9.009572 -14.05085,0.32637 -0.0564,11.413974 -0.58774,0.33791 v 0.71482 c 0.17927,0.0521 0.30273,0.2162 0.30326,0.4029 2.2e-4,0.22114 -0.17076,0.40473 -0.39135,0.42022 -0.0102,3.7e-4 -0.0202,3.7e-4 -0.0303,0 -0.15054,-5.8e-4 -0.28931,-0.0815 -0.3639,-0.21227 l -0.0217,0.78702 -0.7899,0.8159 c -0.48754,0.53349 -0.98205,0.79237 -1.2087,1.44552 -0.22873,0.71887 0.0559,2.27825 0.38269,3.65062 0.32675,1.37238 0.75195,2.79084 -0.32637,4.68603 -1.0783,1.89519 -4.37812,3.59489 -5.58713,4.77121 -1.20898,1.17633 -2.45002,2.25481 -2.67875,3.43113 l -0.15596,4.21959 c 0.30238,0.12095 0.50078,0.41369 0.50109,0.73936 -6.9e-4,0.34674 -0.22548,0.65324 -0.55596,0.75814 l -0.13719,3.73438 h -0.18485 l -0.0866,-3.71416 c -0.36752,-0.0783 -0.63046,-0.40259 -0.63106,-0.77836 6.1e-4,-0.36186 0.24491,-0.67791 0.59495,-0.76969 l -0.0968,-4.18926 c -0.35942,-0.98026 -0.88401,-2.1888 -2.12568,-2.77696 -1.24169,-0.58816 -3.72272,-1.73292 -4.76833,-3.13797 -1.04563,-1.40505 -2.22281,-3.13617 -2.15746,-4.86798 0.0653,-1.73182 0.81645,-3.00679 0.84913,-4.24847 0.0326,-1.24168 0.097,-1.3725 -0.32781,-2.02604 -0.24187,-0.37211 -0.58024,-0.75004 -0.86212,-1.04695 l -0.71915,-0.0896 0.36103,-0.27871 -0.0534,-0.0534 0.0996,0.0173 0.86355,-0.66572 v -1.61013 h -1.10761 l -0.29459,0.38556 v 0.71048 c 0.18597,0.0477 0.31607,0.21524 0.31626,0.40724 -3.5e-4,0.23195 -0.18828,0.41988 -0.42023,0.42023 -0.0101,3.6e-4 -0.0202,3.6e-4 -0.0303,0 -0.22059,-0.0155 -0.39156,-0.1991 -0.39134,-0.42023 5.2e-4,-0.1867 0.124,-0.35073 0.30326,-0.4029 v -0.71482 l -0.58775,-0.33791 v -1.14371 -9.493364 l -35.02908,1.931064 v 9.04858 l 0.76535,0.76535 v 0.75237 h -0.55452 v 2.14589 l -1.21592,0.11553 h 1.52928 l -1.53504,1.6578 v 0.48665 l 0.44911,0.25993 v 1.01085 l -0.59641,0.5964 v 0.0593 c 0.2868,0.0559 0.49384,0.30709 0.49387,0.59929 1.1e-4,0.33741 -0.27343,0.61096 -0.61083,0.61085 -0.33741,1.1e-4 -0.61096,-0.27344 -0.61085,-0.61085 6.7e-4,-0.28615 0.19995,-0.53347 0.47942,-0.59496 v -0.0491 l -0.77546,-0.77547 v -0.80868 l 0.48521,-0.28015 v -0.50399 h -0.0159 l -1.45274,-1.45274 -0.27149,0.0261 v 11.26089 l 0.47077,0.81446 c 0,0 -0.53121,0.61002 -0.69459,1.12349 -0.16339,0.51348 -0.0933,1.61041 0.14007,2.59067 0.2334,0.98027 0.53772,2.54386 -0.23249,3.89757 -0.77022,1.3537 -3.12786,2.56778 -3.99143,3.40801 -0.86356,0.84024 -1.75002,1.61036 -1.91341,2.4506 l -0.11119,3.01378 c 0.21621,0.0864 0.35805,0.2957 0.35813,0.52854 -5.1e-4,0.24766 -0.16105,0.4666 -0.39712,0.54152 l -0.0982,2.66721 z m 67.11484,-35.93869 c 0.0576,-0.0874 0.14558,-0.1502 0.24693,-0.17618 v -0.71049 l -0.21517,-0.2816 z"
       id="path4425-6"
       inkscape:connector-curvature="0"
       sodipodi:nodetypes="cccccsscccccccccccccccccccccccccccccccccccccccccccccccccsssscccccccccccscsccccccccccccccccccccccccccccccccccccccccccccccccccccccccccccccccccccccccccccccccccccccsccscccccccccccccccccccccscccccccccccccccscccccccccccccccccccccccccccccccccccccccccccccccccccccccccccccccccccccccccsccccccccccsscsccccccccccccccccccccccccccccccccccccccccccccccccssssccccccccccc" /><g
       id="layer1"
       transform="matrix(0.56783302,0,0,-0.56783302,30.244852,637.14148)"><g
         id="g3049"
         transform="matrix(1.25,0,0,1.25,-232.63393,326.06962)"><path
           style="fill:#8a8a8c;fill-opacity:1;fill-rule:nonzero;stroke:none"
           id="path2922"
           d="m 436.00781,85.777344 1.58985,0 c 2.46484,0 3.48437,1.328125 3.48437,3.152344 0,2.464843 -1.39844,3.648437 -3.62891,3.769531 l -0.75781,0.02344 0,1.515625 0.73828,0 c 3.71875,0 6.11329,-2.535156 6.11329,-5.332031 0,-3.222656 -2.15626,-4.789062 -5.66407,-4.789062 l -4.17187,0 0,16.593749 2.29687,0 0,-14.933596"
           inkscape:connector-curvature="0" /><path
           style="fill:#8a8a8c;fill-opacity:1;fill-rule:evenodd;stroke:none"
           id="path2924"
           d="m 449.44922,84.117188 -6.75781,16.593752 2.23047,0 1.77734,-4.882815 6.32812,0 1.70704,4.882815 2.65624,0 -6.1875,-16.593752 z m -2.10938,10.050781 c 0.90235,-2.296875 1.77735,-4.597657 2.62891,-7.585938 l 0.0508,0 c 0.82813,2.988281 1.63281,5.289063 2.46485,7.585938 l -5.14454,0"
           inkscape:connector-curvature="0" /><path
           style="fill:#8a8a8c;fill-opacity:1;fill-rule:nonzero;stroke:none"
           id="path2926"
           d="m 468.15234,85.492188 c -0.92187,-1.042969 -2.37109,-1.65625 -4.09765,-1.65625 -2.58594,0 -4.74219,1.679687 -4.74219,3.910156 0,2.347656 1.53906,3.363281 2.91406,4.433594 1.35156,0.992187 3.83985,2.34375 3.83985,4.429687 0,1.851563 -1.25391,2.726563 -2.89063,2.726563 -1.5625,0 -2.6289,-0.757813 -3.60156,-1.445313 l -1.01953,1.375 c 1.18359,1.160155 3.08203,1.730465 4.66797,1.730465 2.65625,0 5.14453,-1.707028 5.14453,-4.33984 0,-2.132812 -1.32813,-3.648438 -3.60157,-5.308594 -2.13281,-1.539062 -3.15234,-2.417968 -3.15234,-3.601562 0,-1.28125 0.92188,-2.253906 2.58203,-2.253906 0.9961,0 2.0625,0.59375 2.86719,1.1875 l 1.08984,-1.1875"
           inkscape:connector-curvature="0" /><path
           style="fill:#8a8a8c;fill-opacity:1;fill-rule:nonzero;stroke:none"
           id="path2928"
           d="m 480.47656,85.492188 c -0.92187,-1.042969 -2.37109,-1.65625 -4.10156,-1.65625 -2.58203,0 -4.73828,1.679687 -4.73828,3.910156 0,2.347656 1.53906,3.363281 2.91406,4.433594 1.35156,0.992187 3.83984,2.34375 3.83984,4.429687 0,1.851563 -1.2539,2.726563 -2.89062,2.726563 -1.56641,0 -2.63281,-0.757813 -3.60547,-1.445313 l -1.01562,1.375 c 1.18359,1.160155 3.08203,1.730465 4.66797,1.730465 2.65624,0 5.14453,-1.707028 5.14453,-4.33984 0,-2.132812 -1.32813,-3.648438 -3.60157,-5.308594 -2.13672,-1.539062 -3.15625,-2.417968 -3.15625,-3.601562 0,-1.28125 0.92579,-2.253906 2.58594,-2.253906 0.99609,0 2.0625,0.59375 2.86719,1.1875 l 1.08984,-1.1875"
           inkscape:connector-curvature="0" /><path
           style="fill:#8a8a8c;fill-opacity:1;fill-rule:evenodd;stroke:none"
           id="path2930"
           d="m 488.60547,84.117188 -6.75391,16.593752 2.22656,0 1.77735,-4.882815 6.33203,0 1.70312,4.882815 2.65626,0 -6.1875,-16.593752 z m -2.10938,10.050781 c 0.90235,-2.296875 1.77735,-4.597657 2.63282,-7.585938 l 0.0469,0 c 0.82813,2.988281 1.63281,5.289063 2.46484,7.585938 l -5.14453,0"
           inkscape:connector-curvature="0" /><path
           style="fill:#8a8a8c;fill-opacity:1;fill-rule:nonzero;stroke:none"
           id="path2932"
           d="m 498.20703,84.117188 0,10.148437 c 0,4.265625 1.875,6.730465 6.54297,6.730465 4.00781,0 6.30469,-2.656246 6.30469,-6.378902 l 0,-10.5 -2.15625,0 0,10.453124 c 0,2.371094 -1.04297,4.835938 -4.14844,4.835938 -2.96094,0 -4.24219,-1.800781 -4.24219,-5.238281 l 0,-10.050781 -2.30078,0"
           inkscape:connector-curvature="0" /><path
           style="fill:#8a8a8c;fill-opacity:1;fill-rule:nonzero;stroke:none"
           id="path2934"
           d="m 433.47266,62.082031 0,10.144531 c 0,4.265626 1.87109,6.734376 6.54296,6.734376 4.00391,0 6.30469,-2.65625 6.30469,-6.378907 l 0,-10.5 -2.15625,0 0,10.453125 c 0,2.371094 -1.04297,4.835938 -4.14844,4.835938 -2.96093,0 -4.24218,-1.800782 -4.24218,-5.238282 l 0,-10.050781 -2.30078,0"
           inkscape:connector-curvature="0" /><path
           style="fill:#8a8a8c;fill-opacity:1;fill-rule:nonzero;stroke:none"
           id="path2936"
           d="m 464.60156,62.082031 -1.89453,0 0,13.226563 -0.0508,0 c -1.11328,-1.660156 -7.22656,-8.914063 -10.87891,-13.226563 l -1.70703,0 0,16.59375 1.89453,0 0,-13.203125 0.0508,0 c 0.9961,1.445313 7.17969,8.886719 10.78516,13.203125 l 1.80078,0 0,-16.59375"
           inkscape:connector-curvature="0" /><path
           style="fill:#8a8a8c;fill-opacity:1;fill-rule:nonzero;stroke:none"
           id="path2938"
           d="m 468.58594,78.675781 2.30078,0 0,-16.59375 -2.30078,0 z"
           inkscape:connector-curvature="0" /><path
           style="fill:#8a8a8c;fill-opacity:1;fill-rule:nonzero;stroke:none"
           id="path2940"
           d="m 480.4375,78.675781 6.61328,-16.546875 -2.0625,-0.285156 c -1.68359,4.527344 -3.39062,9.078125 -5.05078,14.175781 l -0.0469,0 c -1.58593,-5.097656 -3.17578,-9.648437 -4.78906,-14.175781 l -2.34375,0.425781 6.14063,16.40625 1.53906,0"
           inkscape:connector-curvature="0" /><path
           style="fill:#8a8a8c;fill-opacity:1;fill-rule:nonzero;stroke:none"
           id="path2942"
           d="m 497.10156,62.082031 -8.17968,0 0,16.59375 9.19921,0 0,-1.660156 -6.89843,0 0,-6.257813 5.76172,0 0,-1.660156 -5.76172,0 0,-5.359375 5.8789,0 0,-1.65625"
           inkscape:connector-curvature="0" /><path
           style="fill:#8a8a8c;fill-opacity:1;fill-rule:evenodd;stroke:none"
           id="path2944"
           d="m 503.00391,63.738281 1.96875,0 c 1.53906,0 2.8164,0.785157 2.8164,2.824219 0,1.398438 -0.54297,3.578125 -3.48047,3.578125 l -1.30468,0 z m -2.30079,14.9375 2.30079,0 0,-6.875 2.4414,0 3.83985,7.15625 2.32422,-0.710937 -4.125,-7.0625 c 1.58593,-1.019532 2.77343,-2.394532 2.77343,-4.835938 0,-2.867187 -2.10937,-4.265625 -4.8125,-4.265625 l -4.74219,0 0,16.59375"
           inkscape:connector-curvature="0" /><path
           style="fill:#8a8a8c;fill-opacity:1;fill-rule:nonzero;stroke:none"
           id="path2946"
           d="m 522.75,63.457031 c -0.92578,-1.042969 -2.37109,-1.660156 -4.10156,-1.660156 -2.58594,0 -4.74219,1.683594 -4.74219,3.910156 0,2.347657 1.54297,3.367188 2.91797,4.433594 1.35156,0.996094 3.83984,2.347656 3.83984,4.433594 0,1.847656 -1.25781,2.726562 -2.89062,2.726562 -1.56641,0 -2.63282,-0.761719 -3.60547,-1.449219 l -1.01953,1.375 c 1.1875,1.164063 3.08203,1.734376 4.67187,1.734376 2.65625,0 5.14453,-1.707032 5.14453,-4.339844 0,-2.132813 -1.32812,-3.648438 -3.60546,-5.308594 -2.13282,-1.542969 -3.15235,-2.417969 -3.15235,-3.605469 0,-1.28125 0.92578,-2.25 2.58203,-2.25 1,0 2.06641,0.59375 2.8711,1.183594 L 522.75,63.457031"
           inkscape:connector-curvature="0" /><path
           style="fill:#8a8a8c;fill-opacity:1;fill-rule:nonzero;stroke:none"
           id="path2948"
           d="m 526.21094,78.675781 2.29687,0 0,-16.59375 -2.29687,0 z"
           inkscape:connector-curvature="0" /><path
           style="fill:#8a8a8c;fill-opacity:1;fill-rule:nonzero;stroke:none"
           id="path2950"
           d="m 538.22266,78.675781 0,-14.9375 5.33593,0 0,-1.65625 -12.9414,0 0,1.65625 5.30859,0 0,14.9375 2.29688,0"
           inkscape:connector-curvature="0" /><path
           style="fill:#8a8a8c;fill-opacity:1;fill-rule:evenodd;stroke:none"
           id="path2952"
           d="m 548.53516,57.199219 c -0.58985,0 -1.1836,0.617187 -1.1836,1.207031 0,0.640625 0.57032,1.234375 1.1836,1.234375 0.66406,0 1.21093,-0.570313 1.21093,-1.234375 0,-0.640625 -0.54687,-1.207031 -1.21093,-1.207031 z m 4.76953,0 c -0.59375,0 -1.1875,0.617187 -1.1875,1.207031 0,0.640625 0.57031,1.234375 1.1875,1.234375 0.66015,0 1.20703,-0.570313 1.20703,-1.234375 0,-0.640625 -0.54688,-1.207031 -1.20703,-1.207031 z m -2.96485,4.882812 -6.7539,16.59375 2.22656,0 1.77734,-4.886719 6.32813,0 1.70703,4.886719 2.65625,0 -6.1875,-16.59375 z m -2.10937,10.050781 c 0.89844,-2.300781 1.77734,-4.601562 2.62891,-7.585937 l 0.0469,0 c 0.83203,2.984375 1.63672,5.285156 2.46484,7.585937 l -5.14062,0"
           inkscape:connector-curvature="0" /><path
           style="fill:#8a8a8c;fill-opacity:1;fill-rule:nonzero;stroke:none"
           id="path2954"
           d="m 565.91406,78.675781 0,-14.9375 5.33594,0 0,-1.65625 -12.94531,0 0,1.65625 5.3125,0 0,14.9375 2.29687,0"
           inkscape:connector-curvature="0" /><path
           style="fill:#8a8a8c;fill-opacity:1;fill-rule:nonzero;stroke:none"
           id="path2956"
           d="m 378.45703,70.921875 -0.004,-27.175781 22.96876,8.339844 0,10.125 2.24609,0 0,-10.183594 22.82812,-8.316406 0,56.937502 -2.30078,-2.300784 0,-51.351562 -18.22656,6.640625 0,15.234375 -6.84766,0 0,-15.175782 -18.36718,-6.667968 0.004,23.703125 -2.30078,0.191406"
           inkscape:connector-curvature="0" /><path
           style="fill:#f8971c;fill-opacity:1;fill-rule:nonzero;stroke:none"
           id="path2958"
           d="m 412.94531,105.60547 12.74219,0 c -9.45312,-8.753908 -18.16406,-21.222658 -3.98828,-23.562501 l -1.56641,-0.5625 c -14.64843,1.992187 -12.89843,13.109375 -7.1875,24.125001"
           inkscape:connector-curvature="0" /><path
           style="fill:#f8971c;fill-opacity:1;fill-rule:nonzero;stroke:none"
           id="path2960"
           d="m 354.41797,91.300781 13.06641,0 c 7.4414,-11.152343 21.09765,-13.910156 38.27734,-15.085937 l -1.5586,-0.566406 c -20.97656,0.253906 -41.57031,5.015624 -49.78515,15.652343"
           inkscape:connector-curvature="0" /><path
           style="fill:#f8971c;fill-opacity:1;fill-rule:nonzero;stroke:none"
           id="path2962"
           d="m 373.5,96.046875 13.12891,0 c 1.88281,-10.824219 10.58593,-16.230469 24.48828,-17.871094 l -1.54688,-0.558593 C 391.42578,79.207031 376.64453,84.453125 373.5,96.046875"
           inkscape:connector-curvature="0" /><path
           style="fill:#f8971c;fill-opacity:1;fill-rule:nonzero;stroke:none"
           id="path2964"
           d="m 392.94922,100.70703 12.33594,0.0977 c -3.3125,-9.800784 -2.375,-19.08594 11.10937,-20.718752 l -1.57812,-0.574219 c -14.67969,1.398437 -22.64063,10.03125 -21.86719,21.195311"
           inkscape:connector-curvature="0" /><path
           style="fill:#f8971c;fill-opacity:1;fill-rule:nonzero;stroke:none"
           id="path2966"
           d="M 336.01172,86.511719 C 344.23438,79.578125 369.72266,73.5625 398.63281,73.5625 l 1.73438,0.660156 c -27.76563,0.300782 -40.60938,5.535156 -51.29688,12.355469 l -13.05859,-0.06641"
           inkscape:connector-curvature="0" /></g></g><image
       sodipodi:absref="/home/michael/Dokumente/OSM/FOSSGIS/2017/programmheft/images_raw/wordcloud-open.png"
       y="-301.84198"
       x="56.279064"
       id="image4783"
       xlink:href="file:///home/michael/Dokumente/OSM/FOSSGIS/2017/programmheft/images_raw/wordcloud-open.png"
       preserveAspectRatio="none"
       height="156.19522"
       width="247.94485"
       transform="scale(1,-1)" /></g></svg>